<svg width="25" height="25" viewBox="0 0 25 25" fill="none" xmlns="http://www.w3.org/2000/svg">
<path d="M2.24316 0.5C1.73749 0.5 1.33639 0.672335 1.00586 1.02148C0.673533 1.37259 0.500815 1.80911 0.5 2.36621V18.1309C0.5 18.6875 0.672905 19.1236 1.00586 19.4746C1.33739 19.8241 1.73795 19.9959 2.24219 19.9951H20.9414L21.0889 20.1514L24.5 23.7471V2.36621C24.5 1.80827 24.3267 1.37222 23.9941 1.02246C23.7037 0.717088 23.3603 0.547037 22.9404 0.508789L22.7559 0.5H2.24316ZM22.7568 0.963867C23.1353 0.963867 23.4549 1.137 23.7061 1.40039C23.9591 1.6658 24.1123 1.99121 24.1113 2.36426V22.6904L23.249 21.7842L21.1045 19.5312H2.24316C1.86485 19.5312 1.54509 19.359 1.29395 19.0957C1.07195 18.8629 0.927097 18.5834 0.895508 18.2666L0.888672 18.1289V2.36426C0.888681 1.99256 1.0411 1.66719 1.29199 1.40137C1.54264 1.13591 1.86332 0.962798 2.24316 0.963867H22.7568ZM10.917 14.4072V14.8711H19.6387V14.4072H10.917ZM5.36133 10.0156V10.4795H19.6387V10.0156H5.36133ZM5.36133 5.62402V6.08789H19.6387V5.62402H5.36133Z" fill="black" stroke="#C7EFD0"/>
</svg>
