<svg width="201" height="576" viewBox="0 0 201 576" fill="none" xmlns="http://www.w3.org/2000/svg">
<rect x="16.4782" y="13.0004" width="168.692" height="657.887" rx="4.5" transform="rotate(0.0416083 16.4782 13.0004)" stroke="#EFF5DC"/>
<rect x="29.1611" y="26" width="143" height="106" rx="4.5" stroke="#EFF5DC"/>
<rect x="29.1611" y="145" width="143" height="106" rx="4.5" stroke="#EFF5DC"/>
<rect x="29.1611" y="264" width="143" height="106" rx="4.5" stroke="#EFF5DC"/>
<rect x="29.1611" y="383" width="143" height="106" rx="4.5" stroke="#EFF5DC"/>
<rect x="29.1172" y="502" width="143" height="106" rx="4.5" stroke="#EFF5DC"/>
<path d="M18.4238 30.9428C18.043 31.436 17.5891 31.8276 17.0885 32.095C16.5879 32.3623 16.0506 32.5 15.5079 32.5C14.9652 32.5 14.4279 32.3623 13.9273 32.095C13.4267 31.8276 12.9728 31.436 12.592 30.9428L2.7863 18.5596C-3.76778 10.1963 4.79406 -8.27838 15.5044 5.38193C26.1987 -8.25189 34.7605 10.2198 28.2226 18.5596L18.4238 30.9428Z" stroke="white" stroke-linecap="round" stroke-linejoin="round"/>
<path d="M188.424 267.943C188.043 268.436 187.589 268.828 187.089 269.095C186.588 269.362 186.051 269.5 185.508 269.5C184.965 269.5 184.428 269.362 183.927 269.095C183.427 268.828 182.973 268.436 182.592 267.943L172.786 255.56C166.232 247.196 174.794 228.722 185.504 242.382C196.199 228.748 204.761 247.22 198.223 255.56L188.424 267.943Z" stroke="white" stroke-linecap="round" stroke-linejoin="round"/>
<path d="M18.4238 388.943C18.043 389.436 17.5891 389.828 17.0885 390.095C16.5879 390.362 16.0506 390.5 15.5079 390.5C14.9652 390.5 14.4279 390.362 13.9273 390.095C13.4267 389.828 12.9728 389.436 12.592 388.943L2.7863 376.56C-3.76778 368.196 4.79406 349.722 15.5044 363.382C26.1987 349.748 34.7605 368.22 28.2226 376.56L18.4238 388.943Z" stroke="white" stroke-linecap="round" stroke-linejoin="round"/>
</svg>
